<svg width="223" height="223" viewBox="0 0 223 223" fill="none" xmlns="http://www.w3.org/2000/svg">
<circle cx="111.5" cy="111.5" r="111.5" fill="url(#paint0_linear)"/>
<path d="M112.033 107.995C108.048 107.995 104.815 111.229 104.815 115.214C105.153 136.944 102.371 157.885 96.4688 178.826C95.6792 181.759 97.1455 188 103.424 188C106.582 188 109.476 185.932 110.378 182.737C114.439 168.337 119.702 145.028 119.251 115.214C119.251 111.229 116.017 107.995 112.033 107.995ZM111.77 83.4077C93.3485 83.3701 80.4913 97.5439 80.7545 113.823C80.9801 128.222 79.6268 142.659 76.7321 156.682C75.905 160.592 78.4237 164.39 82.3336 165.217C86.2431 166.006 90.0402 163.525 90.8673 159.615C93.9876 144.539 95.416 129.049 95.1905 113.597C95.0777 105.777 101.168 97.8071 111.544 97.8447C120.98 97.995 128.762 105.477 128.875 114.537C129.138 128.974 128.047 143.486 125.679 157.697C125.04 161.608 127.709 165.329 131.657 166.006C137.634 166.984 139.702 161.457 139.927 160.029C142.408 144.99 143.574 129.613 143.311 114.312C143.047 97.5063 128.912 83.6709 111.77 83.4077ZM78.4989 77.4673C75.3786 74.9486 70.8675 75.3997 68.3112 78.4824C60.6418 87.9568 56.4691 99.9498 56.6568 112.169C56.8448 123.485 55.9427 134.839 53.9501 145.892C53.236 149.802 55.8299 153.562 59.7395 154.276C65.7921 155.329 67.8976 149.802 68.1608 148.449C70.3035 136.456 71.3187 124.199 71.0931 111.943C70.9803 102.958 73.875 94.5361 79.514 87.6184C82.0328 84.4981 81.5816 79.9864 78.4989 77.4673ZM111.394 58.707C106.769 58.5942 102.108 59.1205 97.6343 60.2109C93.762 61.1132 91.3561 65.0231 92.2581 68.8956C93.1981 72.7679 97.0703 75.1366 100.98 74.2342C104.288 73.4823 107.709 73.1063 111.206 73.1439C133.875 73.4823 152.596 91.641 152.972 113.635C153.123 125.027 152.559 136.493 151.28 147.81C150.829 151.757 153.687 155.329 157.634 155.78C162.671 156.382 165.303 152.209 165.604 149.426C166.995 137.471 167.596 125.44 167.408 113.409C166.92 83.7085 141.807 59.1581 111.394 58.707ZM187.22 95.2504C186.355 91.3406 182.559 88.8591 178.611 89.7239C174.701 90.5886 172.258 94.4609 173.123 98.3334C174.551 104.8 174.589 109.612 174.551 116.868C174.513 120.853 177.709 124.124 181.694 124.162H181.769C185.717 124.162 188.95 120.966 188.987 116.981C189.025 110.326 189.1 103.71 187.22 95.2504ZM175.153 67.9557C160.491 47.0899 136.544 34.3825 111.018 34.0065C90.0402 33.7433 70.6419 41.4881 56.2059 55.9626C42.2584 69.9108 34.7398 88.4455 35.0406 108.183L35.003 114.65C34.8902 118.635 38.0105 121.944 41.9952 122.056C42.0704 122.094 42.1456 122.094 42.2208 122.094C46.1307 122.094 49.3262 118.974 49.439 115.063L49.4766 107.958C49.251 92.1674 55.2284 77.3172 66.3937 66.151C78.0853 54.4963 93.8748 48.2178 110.83 48.4434C131.694 48.7442 151.356 59.1581 163.348 76.2269C165.641 79.4976 170.115 80.2871 173.386 77.9937C176.656 75.7005 177.446 71.2264 175.153 67.9557Z" fill="white"/>
<defs>
<linearGradient id="paint0_linear" x1="0" y1="0" x2="219.5" y2="223" gradientUnits="userSpaceOnUse">
<stop stop-color="#21D4FD"/>
<stop offset="1" stop-color="#B721FF"/>
</linearGradient>
</defs>
</svg>
