<svg width="98" height="168" viewBox="0 0 98 168" fill="none" xmlns="http://www.w3.org/2000/svg">
<path d="M49.0208 47.088C46.4849 47.088 44.4274 49.1456 44.4274 51.6816C44.6428 65.5101 42.8725 78.8362 39.1165 92.1623C38.6141 94.0285 39.5472 98 43.5424 98C45.552 98 47.394 96.6841 47.9681 94.6506C50.5519 85.4874 53.9011 70.654 53.614 51.6816C53.614 49.1456 51.5566 47.088 49.0208 47.088ZM48.8533 31.4413C37.1308 31.4174 28.949 40.437 29.1165 50.7963C29.26 59.9595 28.3989 69.1466 26.5568 78.0706C26.0304 80.5589 27.6333 82.9752 30.1214 83.5015C32.6093 84.004 35.0256 82.4249 35.5519 79.9368C37.5376 70.3429 38.4466 60.4859 38.303 50.6528C38.2312 45.6766 42.1068 40.6045 48.7098 40.6284C54.7146 40.7241 59.6666 45.4852 59.7384 51.2509C59.9059 60.438 59.212 69.673 57.7049 78.7166C57.2982 81.2049 58.9967 83.5733 61.5087 84.004C65.3125 84.6261 66.6283 81.1092 66.7718 80.2C68.3507 70.63 69.0924 60.8448 68.9249 51.1073C68.7575 40.4131 59.7623 31.6088 48.8533 31.4413ZM27.6811 27.661C25.6955 26.0582 22.8248 26.3453 21.198 28.307C16.3175 34.3361 13.6622 41.9681 13.7816 49.7438C13.9012 56.945 13.3272 64.1703 12.0591 71.2043C11.6047 73.6923 13.2554 76.0849 15.7433 76.5395C19.595 77.2094 20.9348 73.6923 21.1023 72.8312C22.4659 65.1991 23.1119 57.3996 22.9683 49.6002C22.8965 43.8821 24.7386 38.523 28.3271 34.1208C29.93 32.1351 29.6428 29.264 27.6811 27.661ZM48.6141 15.7226C45.6714 15.6508 42.705 15.9858 39.8582 16.6796C37.394 17.2539 35.863 19.742 36.437 22.2063C37.0351 24.6705 39.4993 26.1778 41.9872 25.6036C44.0925 25.1251 46.2695 24.8858 48.4944 24.9097C62.9201 25.1251 74.834 36.6807 75.0733 50.6767C75.169 57.926 74.8101 65.223 73.9966 72.4245C73.7095 74.9365 75.5279 77.2094 78.0397 77.4965C81.2454 77.8792 82.9202 75.2236 83.1114 73.4531C83.9966 65.8451 84.3794 58.1892 84.2598 50.5331C83.9488 31.6327 67.9681 16.0097 48.6141 15.7226ZM96.8674 38.9775C96.3171 36.4894 93.9009 34.9103 91.3889 35.4606C88.9008 36.0109 87.3459 38.4751 87.8962 40.9395C88.8051 45.0545 88.8291 48.1168 88.8051 52.7343C88.7812 55.2702 90.8147 57.3518 93.3507 57.3757H93.3985C95.9105 57.3757 97.9679 55.342 97.9919 52.8061C98.0158 48.5714 98.0635 44.3607 96.8674 38.9775ZM89.188 21.6082C79.8579 8.32993 64.6187 0.24339 48.3748 0.00413182C35.0256 -0.163349 22.6812 4.76517 13.4947 13.9762C4.61898 22.8523 -0.165594 34.6472 0.0258119 47.2076L0.00188615 51.3227C-0.0698912 53.8588 1.91576 55.9641 4.4515 56.0359C4.49936 56.0598 4.54721 56.0598 4.59506 56.0598C7.08315 56.0598 9.11665 54.0741 9.18842 51.5859L9.21235 47.0641C9.06879 37.0156 12.8726 27.5655 19.9778 20.4597C27.4179 13.0431 37.4658 9.0477 48.2552 9.19126C61.5326 9.38266 74.0445 16.0097 81.676 26.8717C83.1353 28.953 85.9823 29.4555 88.0636 27.996C90.145 26.5367 90.6472 23.6895 89.188 21.6082Z" fill="url(#paint0_linear)"/>
<path d="M17 123H23.437V167.923H17V123ZM31.5877 123H47.1794C51.6138 123 53.8309 125.105 53.8309 129.315V161.608C53.8309 165.818 51.6138 167.923 47.1794 167.923H31.5877V123ZM47.3225 160.747V130.176C47.3225 129.315 47.1794 128.765 46.8933 128.526C46.6072 128.239 46.0351 128.095 45.1768 128.095H38.0962V162.828H45.1768C46.0351 162.828 46.6072 162.708 46.8933 162.469C47.1794 162.182 47.3225 161.608 47.3225 160.747ZM66.9987 142.089H74.8661C79.3004 142.089 81.5176 144.218 81.5176 148.476V161.608C81.5176 165.818 79.3004 167.923 74.8661 167.923H67.2848C62.8027 167.923 60.5617 165.818 60.5617 161.608V129.315C60.5617 125.105 62.8027 123 67.2848 123H74.6515C79.0859 123 81.303 125.105 81.303 129.315V137.065H74.9376V130.32C74.9376 129.459 74.7946 128.908 74.5085 128.669C74.2224 128.382 73.6502 128.239 72.792 128.239H69.1443C68.2861 128.239 67.7139 128.382 67.4278 128.669C67.1417 128.908 66.9987 129.459 66.9987 130.32V142.089ZM75.0806 160.603V149.337C75.0806 148.523 74.9376 147.973 74.6515 147.686C74.3654 147.399 73.7933 147.256 72.935 147.256H66.9987V160.603C66.9987 161.464 67.1417 162.039 67.4278 162.326C67.7139 162.565 68.2861 162.684 69.1443 162.684H72.935C73.7933 162.684 74.3654 162.565 74.6515 162.326C74.9376 162.039 75.0806 161.464 75.0806 160.603Z" fill="url(#paint1_linear)"/>
<defs>
<linearGradient id="paint0_linear" x1="0" y1="0" x2="96.4619" y2="98" gradientUnits="userSpaceOnUse">
<stop stop-color="#21D4FD"/>
<stop offset="1" stop-color="#B721FF"/>
</linearGradient>
<linearGradient id="paint1_linear" x1="17" y1="123" x2="58.2447" y2="183.179" gradientUnits="userSpaceOnUse">
<stop stop-color="#21D4FD"/>
<stop offset="1" stop-color="#B721FF"/>
</linearGradient>
</defs>
</svg>
