<svg width="223" height="223" viewBox="0 0 223 223" fill="none" xmlns="http://www.w3.org/2000/svg">
<circle cx="111.5" cy="111.5" r="111.5" fill="url(#paint0_linear)"/>
<path d="M111.033 107.995C107.048 107.995 103.815 111.229 103.815 115.214C104.153 136.944 101.371 157.885 95.4688 178.826C94.6792 181.759 96.1455 188 102.424 188C105.582 188 108.476 185.932 109.378 182.737C113.439 168.337 118.702 145.028 118.251 115.214C118.251 111.229 115.017 107.995 111.033 107.995ZM110.77 83.4077C92.3485 83.3701 79.4913 97.5439 79.7545 113.823C79.9801 128.222 78.6268 142.659 75.7321 156.682C74.905 160.592 77.4237 164.39 81.3336 165.217C85.2431 166.006 89.0402 163.525 89.8673 159.615C92.9876 144.539 94.416 129.049 94.1905 113.597C94.0777 105.777 100.168 97.8071 110.544 97.8447C119.98 97.995 127.762 105.477 127.875 114.537C128.138 128.974 127.047 143.486 124.679 157.697C124.04 161.608 126.709 165.329 130.657 166.006C136.634 166.984 138.702 161.457 138.927 160.029C141.408 144.99 142.574 129.613 142.311 114.312C142.047 97.5063 127.912 83.6709 110.77 83.4077ZM77.4989 77.4673C74.3786 74.9486 69.8675 75.3997 67.3112 78.4824C59.6418 87.9568 55.4691 99.9498 55.6568 112.169C55.8448 123.485 54.9427 134.839 52.9501 145.892C52.236 149.802 54.8299 153.562 58.7395 154.276C64.7921 155.329 66.8976 149.802 67.1608 148.449C69.3035 136.456 70.3187 124.199 70.0931 111.943C69.9803 102.958 72.875 94.5361 78.514 87.6184C81.0328 84.4981 80.5816 79.9864 77.4989 77.4673ZM110.394 58.707C105.769 58.5942 101.108 59.1205 96.6343 60.2109C92.762 61.1132 90.3561 65.0231 91.2581 68.8956C92.1981 72.7679 96.0703 75.1366 99.9799 74.2342C103.288 73.4823 106.709 73.1063 110.206 73.1439C132.875 73.4823 151.596 91.641 151.972 113.635C152.123 125.027 151.559 136.493 150.28 147.81C149.829 151.757 152.687 155.329 156.634 155.78C161.671 156.382 164.303 152.209 164.604 149.426C165.995 137.471 166.596 125.44 166.408 113.409C165.92 83.7085 140.807 59.1581 110.394 58.707ZM186.22 95.2504C185.355 91.3406 181.559 88.8591 177.611 89.7239C173.701 90.5886 171.258 94.4609 172.123 98.3334C173.551 104.8 173.589 109.612 173.551 116.868C173.513 120.853 176.709 124.124 180.694 124.162H180.769C184.717 124.162 187.95 120.966 187.987 116.981C188.025 110.326 188.1 103.71 186.22 95.2504ZM174.153 67.9557C159.491 47.0899 135.544 34.3825 110.018 34.0065C89.0402 33.7433 69.6419 41.4881 55.2059 55.9626C41.2584 69.9108 33.7398 88.4455 34.0406 108.183L34.003 114.65C33.8902 118.635 37.0105 121.944 40.9952 122.056C41.0704 122.094 41.1456 122.094 41.2208 122.094C45.1307 122.094 48.3262 118.974 48.439 115.063L48.4766 107.958C48.251 92.1674 54.2284 77.3172 65.3937 66.151C77.0853 54.4963 92.8748 48.2178 109.83 48.4434C130.694 48.7442 150.356 59.1581 162.348 76.2269C164.641 79.4976 169.115 80.2871 172.386 77.9937C175.656 75.7005 176.446 71.2264 174.153 67.9557Z" fill="white"/>
<defs>
<linearGradient id="paint0_linear" x1="254" y1="9.18125e-07" x2="-49" y2="223" gradientUnits="userSpaceOnUse">
<stop stop-color="#08AEEA"/>
<stop offset="1" stop-color="#2AF598"/>
</linearGradient>
</defs>
</svg>
