<svg width="223" height="223" viewBox="0 0 223 223" fill="none" xmlns="http://www.w3.org/2000/svg">
<rect width="223" height="223" fill="#282D2D"/>
<path d="M111.033 108.995C107.048 108.995 103.815 112.229 103.815 116.214C104.153 137.944 101.371 158.885 95.4688 179.826C94.6792 182.759 96.1455 189 102.424 189C105.582 189 108.476 186.932 109.378 183.737C113.439 169.337 118.702 146.028 118.251 116.214C118.251 112.229 115.017 108.995 111.033 108.995ZM110.77 84.4077C92.3485 84.3701 79.4913 98.5439 79.7545 114.823C79.9801 129.222 78.6268 143.659 75.7321 157.682C74.905 161.592 77.4237 165.39 81.3336 166.217C85.2431 167.006 89.0402 164.525 89.8673 160.615C92.9876 145.539 94.416 130.049 94.1905 114.597C94.0777 106.777 100.168 98.8071 110.544 98.8447C119.98 98.995 127.762 106.477 127.875 115.537C128.138 129.974 127.047 144.486 124.679 158.697C124.04 162.608 126.709 166.329 130.657 167.006C136.634 167.984 138.702 162.457 138.927 161.029C141.408 145.99 142.574 130.613 142.311 115.312C142.047 98.5063 127.912 84.6709 110.77 84.4077ZM77.4989 78.4673C74.3786 75.9486 69.8675 76.3997 67.3112 79.4824C59.6418 88.9568 55.4691 100.95 55.6568 113.169C55.8448 124.485 54.9427 135.839 52.9501 146.892C52.236 150.802 54.8299 154.562 58.7395 155.276C64.7921 156.329 66.8976 150.802 67.1608 149.449C69.3035 137.456 70.3187 125.199 70.0931 112.943C69.9803 103.958 72.875 95.5361 78.514 88.6184C81.0328 85.4981 80.5816 80.9864 77.4989 78.4673ZM110.394 59.707C105.769 59.5942 101.108 60.1205 96.6343 61.2109C92.762 62.1132 90.3561 66.0231 91.2581 69.8956C92.1981 73.7679 96.0703 76.1366 99.9799 75.2342C103.288 74.4823 106.709 74.1063 110.206 74.1439C132.875 74.4823 151.596 92.641 151.972 114.635C152.123 126.027 151.559 137.493 150.28 148.81C149.829 152.757 152.687 156.329 156.634 156.78C161.671 157.382 164.303 153.209 164.604 150.426C165.995 138.471 166.596 126.44 166.408 114.409C165.92 84.7085 140.807 60.1581 110.394 59.707ZM186.22 96.2504C185.355 92.3406 181.559 89.8591 177.611 90.7239C173.701 91.5886 171.258 95.4609 172.123 99.3334C173.551 105.8 173.589 110.612 173.551 117.868C173.513 121.853 176.709 125.124 180.694 125.162H180.769C184.717 125.162 187.95 121.966 187.987 117.981C188.025 111.326 188.1 104.71 186.22 96.2504ZM174.153 68.9557C159.491 48.0899 135.544 35.3825 110.018 35.0065C89.0402 34.7433 69.6419 42.4881 55.2059 56.9626C41.2584 70.9108 33.7398 89.4455 34.0406 109.183L34.003 115.65C33.8902 119.635 37.0105 122.944 40.9952 123.056C41.0704 123.094 41.1456 123.094 41.2208 123.094C45.1307 123.094 48.3262 119.974 48.439 116.063L48.4766 108.958C48.251 93.1674 54.2284 78.3172 65.3937 67.151C77.0853 55.4963 92.8748 49.2178 109.83 49.4434C130.694 49.7442 150.356 60.1581 162.348 77.2269C164.641 80.4976 169.115 81.2871 172.386 78.9937C175.656 76.7005 176.446 72.2264 174.153 68.9557Z" fill="url(#paint0_linear)"/>
<defs>
<linearGradient id="paint0_linear" x1="34" y1="35" x2="185.583" y2="189" gradientUnits="userSpaceOnUse">
<stop stop-color="#21D4FD"/>
<stop offset="1" stop-color="#B721FF"/>
</linearGradient>
</defs>
</svg>
