<svg width="1385" height="464" viewBox="0 0 1385 464" fill="none" xmlns="http://www.w3.org/2000/svg">
<rect width="1385" height="464" fill="white"/>
<path d="M398.791 341L400.541 334.77H410.901L412.651 341H415.311L408.661 316.78H402.781L396.131 341H398.791ZM406.631 319.09L410.306 332.355H401.136L404.811 319.09H406.631ZM429.58 337.71V323.5H432.205V341H429.58V339.775C427.83 340.825 426.103 341.35 424.4 341.35C423.21 341.35 422.23 341.21 421.46 340.93C420.69 340.65 420.083 340.172 419.64 339.495C419.22 338.818 418.917 337.932 418.73 336.835C418.567 335.715 418.485 334.315 418.485 332.635V323.5H421.11V332.6C421.11 333.86 421.157 334.91 421.25 335.75C421.343 336.567 421.518 337.22 421.775 337.71C422.032 338.2 422.405 338.538 422.895 338.725C423.385 338.912 424.015 339.005 424.785 339.005C425.555 339.005 426.337 338.9 427.13 338.69C427.923 338.457 428.53 338.235 428.95 338.025L429.58 337.71ZM446.319 323.5V325.775H440.754V334.14C440.754 336.17 440.906 337.488 441.209 338.095C441.489 338.725 442.177 339.04 443.274 339.04L446.389 338.83L446.564 341C445.771 341.117 445.071 341.21 444.464 341.28C443.881 341.35 443.391 341.385 442.994 341.385C442.084 341.385 441.314 341.28 440.684 341.07C440.077 340.883 439.587 340.545 439.214 340.055C438.841 339.565 438.572 338.912 438.409 338.095C438.246 337.278 438.164 336.24 438.164 334.98V325.775H435.679V323.5H438.164V318.145H440.754V323.5H446.319ZM452.149 326.545V341H449.524V315.87H452.149V324.48C454.039 323.593 455.836 323.15 457.539 323.15C458.706 323.15 459.663 323.302 460.409 323.605C461.179 323.885 461.786 324.363 462.229 325.04C462.696 325.717 463.011 326.603 463.174 327.7C463.361 328.797 463.454 330.15 463.454 331.76V341H460.829V331.83C460.829 330.617 460.771 329.602 460.654 328.785C460.561 327.968 460.374 327.315 460.094 326.825C459.838 326.335 459.464 325.997 458.974 325.81C458.484 325.6 457.854 325.495 457.084 325.495C455.638 325.495 454.214 325.763 452.814 326.3L452.149 326.545ZM480.223 338.83L481.238 338.725L481.308 340.79C479.978 340.977 478.742 341.117 477.598 341.21C476.478 341.303 475.44 341.35 474.483 341.35C471.963 341.35 470.178 340.627 469.128 339.18C468.078 337.71 467.553 335.435 467.553 332.355C467.553 326.218 469.992 323.15 474.868 323.15C477.248 323.15 479.01 323.815 480.153 325.145C481.32 326.452 481.903 328.517 481.903 331.34L481.763 333.335H470.213C470.213 335.295 470.563 336.742 471.263 337.675C471.963 338.585 473.188 339.04 474.938 339.04C476.688 339.04 478.45 338.97 480.223 338.83ZM470.178 331.235H479.278C479.278 329.088 478.928 327.572 478.228 326.685C477.552 325.798 476.443 325.355 474.903 325.355C473.34 325.355 472.162 325.822 471.368 326.755C470.598 327.688 470.202 329.182 470.178 331.235ZM488.619 326.79V341H485.994V323.5H488.584V324.725C490.474 323.675 492.282 323.15 494.009 323.15C495.176 323.15 496.132 323.302 496.879 323.605C497.649 323.885 498.256 324.363 498.699 325.04C499.166 325.717 499.481 326.603 499.644 327.7C499.831 328.797 499.924 330.15 499.924 331.76V341H497.334V331.83C497.334 330.617 497.276 329.602 497.159 328.785C497.066 327.968 496.879 327.315 496.599 326.825C496.319 326.335 495.934 325.997 495.444 325.81C494.954 325.6 494.324 325.495 493.554 325.495C492.807 325.495 492.014 325.612 491.174 325.845C490.357 326.055 489.727 326.265 489.284 326.475L488.619 326.79ZM513.858 323.5V325.775H508.293V334.14C508.293 336.17 508.445 337.488 508.748 338.095C509.028 338.725 509.716 339.04 510.813 339.04L513.928 338.83L514.103 341C513.31 341.117 512.61 341.21 512.003 341.28C511.42 341.35 510.93 341.385 510.533 341.385C509.623 341.385 508.853 341.28 508.223 341.07C507.616 340.883 507.126 340.545 506.753 340.055C506.38 339.565 506.111 338.912 505.948 338.095C505.785 337.278 505.703 336.24 505.703 334.98V325.775H503.218V323.5H505.703V318.145H508.293V323.5H513.858ZM519.688 341V323.5H517.063V341H519.688ZM519.688 319.545V316.5H517.063V319.545H519.688ZM531.265 323.15C532.035 323.15 533.341 323.29 535.185 323.57L536.025 323.675L535.92 325.81C534.076 325.6 532.7 325.495 531.79 325.495C530.81 325.495 529.981 325.6 529.305 325.81C528.651 326.02 528.126 326.382 527.73 326.895C527.356 327.408 527.088 328.097 526.925 328.96C526.761 329.8 526.68 330.862 526.68 332.145C526.68 333.428 526.75 334.513 526.89 335.4C527.03 336.263 527.286 336.963 527.66 337.5C528.056 338.037 528.581 338.422 529.235 338.655C529.911 338.888 530.775 339.005 531.825 339.005L535.955 338.69L536.06 340.86C534.963 341.023 534.006 341.14 533.19 341.21C532.396 341.303 531.731 341.35 531.195 341.35C529.841 341.35 528.698 341.187 527.765 340.86C526.855 340.51 526.12 339.973 525.56 339.25C525 338.503 524.591 337.547 524.335 336.38C524.101 335.213 523.985 333.802 523.985 332.145C523.985 330.488 524.113 329.088 524.37 327.945C524.65 326.802 525.081 325.88 525.665 325.18C526.248 324.457 526.995 323.943 527.905 323.64C528.838 323.313 529.958 323.15 531.265 323.15ZM552.319 328.785V337.745C552.389 338.608 553.066 339.122 554.349 339.285L554.244 341.35C552.401 341.35 551.012 340.883 550.079 339.95C548.002 340.883 545.902 341.35 543.779 341.35C542.169 341.35 540.944 340.895 540.104 339.985C539.264 339.075 538.844 337.768 538.844 336.065C538.844 334.362 539.276 333.113 540.139 332.32C541.002 331.503 542.356 331.002 544.199 330.815L549.694 330.29V328.785C549.694 327.595 549.437 326.743 548.924 326.23C548.411 325.717 547.711 325.46 546.824 325.46C545.891 325.46 544.934 325.495 543.954 325.565C542.997 325.612 542.017 325.693 541.014 325.81L539.929 325.915L539.824 323.92C542.321 323.407 544.596 323.15 546.649 323.15C548.632 323.15 550.067 323.605 550.954 324.515C551.864 325.402 552.319 326.825 552.319 328.785ZM541.539 335.925C541.539 338.072 542.426 339.145 544.199 339.145C545.762 339.145 547.326 338.877 548.889 338.34L549.694 338.06V332.285L544.514 332.775C543.464 332.868 542.706 333.172 542.239 333.685C541.772 334.198 541.539 334.945 541.539 335.925ZM566.563 323.5V325.775H560.998V334.14C560.998 336.17 561.15 337.488 561.453 338.095C561.733 338.725 562.421 339.04 563.518 339.04L566.633 338.83L566.808 341C566.015 341.117 565.315 341.21 564.708 341.28C564.125 341.35 563.635 341.385 563.238 341.385C562.328 341.385 561.558 341.28 560.928 341.07C560.321 340.883 559.831 340.545 559.458 340.055C559.085 339.565 558.816 338.912 558.653 338.095C558.49 337.278 558.408 336.24 558.408 334.98V325.775H555.923V323.5H558.408V318.145H560.998V323.5H566.563ZM572.394 341V323.5H569.769V341H572.394ZM572.394 319.545V316.5H569.769V319.545H572.394ZM576.655 332.215C576.655 330.605 576.783 329.228 577.04 328.085C577.32 326.942 577.763 326.008 578.37 325.285C578.976 324.538 579.758 324.002 580.715 323.675C581.671 323.325 582.826 323.15 584.18 323.15C585.533 323.15 586.676 323.325 587.61 323.675C588.566 324.002 589.336 324.538 589.92 325.285C590.526 326.008 590.958 326.942 591.215 328.085C591.495 329.228 591.635 330.605 591.635 332.215C591.635 333.825 591.506 335.202 591.25 336.345C591.016 337.488 590.608 338.433 590.025 339.18C589.441 339.927 588.671 340.475 587.715 340.825C586.758 341.175 585.568 341.35 584.145 341.35C582.721 341.35 581.531 341.175 580.575 340.825C579.618 340.475 578.848 339.927 578.265 339.18C577.681 338.433 577.261 337.488 577.005 336.345C576.771 335.202 576.655 333.825 576.655 332.215ZM579.35 332.145C579.35 333.428 579.408 334.513 579.525 335.4C579.665 336.263 579.91 336.975 580.26 337.535C580.633 338.072 581.135 338.468 581.765 338.725C582.395 338.958 583.2 339.075 584.18 339.075C585.16 339.075 585.953 338.958 586.56 338.725C587.19 338.492 587.68 338.107 588.03 337.57C588.38 337.01 588.613 336.298 588.73 335.435C588.87 334.548 588.94 333.463 588.94 332.18C588.94 330.897 588.858 329.823 588.695 328.96C588.555 328.097 588.298 327.408 587.925 326.895C587.551 326.358 587.061 325.985 586.455 325.775C585.848 325.542 585.09 325.425 584.18 325.425C583.27 325.425 582.5 325.542 581.87 325.775C581.263 325.985 580.773 326.358 580.4 326.895C580.026 327.408 579.758 328.097 579.595 328.96C579.431 329.8 579.35 330.862 579.35 332.145ZM598.541 326.79V341H595.916V323.5H598.506V324.725C600.396 323.675 602.204 323.15 603.931 323.15C605.098 323.15 606.054 323.302 606.801 323.605C607.571 323.885 608.178 324.363 608.621 325.04C609.088 325.717 609.403 326.603 609.566 327.7C609.753 328.797 609.846 330.15 609.846 331.76V341H607.256V331.83C607.256 330.617 607.198 329.602 607.081 328.785C606.988 327.968 606.801 327.315 606.521 326.825C606.241 326.335 605.856 325.997 605.366 325.81C604.876 325.6 604.246 325.495 603.476 325.495C602.729 325.495 601.936 325.612 601.096 325.845C600.279 326.055 599.649 326.265 599.206 326.475L598.541 326.79ZM634.76 328.785V337.745C634.83 338.608 635.507 339.122 636.79 339.285L636.685 341.35C634.842 341.35 633.454 340.883 632.52 339.95C630.444 340.883 628.344 341.35 626.22 341.35C624.61 341.35 623.385 340.895 622.545 339.985C621.705 339.075 621.285 337.768 621.285 336.065C621.285 334.362 621.717 333.113 622.58 332.32C623.444 331.503 624.797 331.002 626.64 330.815L632.135 330.29V328.785C632.135 327.595 631.879 326.743 631.365 326.23C630.852 325.717 630.152 325.46 629.265 325.46C628.332 325.46 627.375 325.495 626.395 325.565C625.439 325.612 624.459 325.693 623.455 325.81L622.37 325.915L622.265 323.92C624.762 323.407 627.037 323.15 629.09 323.15C631.074 323.15 632.509 323.605 633.395 324.515C634.305 325.402 634.76 326.825 634.76 328.785ZM623.98 335.925C623.98 338.072 624.867 339.145 626.64 339.145C628.204 339.145 629.767 338.877 631.33 338.34L632.135 338.06V332.285L626.955 332.775C625.905 332.868 625.147 333.172 624.68 333.685C624.214 334.198 623.98 334.945 623.98 335.925ZM642.564 326.79V341H639.939V323.5H642.529V324.725C644.419 323.675 646.228 323.15 647.954 323.15C649.121 323.15 650.078 323.302 650.824 323.605C651.594 323.885 652.201 324.363 652.644 325.04C653.111 325.717 653.426 326.603 653.589 327.7C653.776 328.797 653.869 330.15 653.869 331.76V341H651.279V331.83C651.279 330.617 651.221 329.602 651.104 328.785C651.011 327.968 650.824 327.315 650.544 326.825C650.264 326.335 649.879 325.997 649.389 325.81C648.899 325.6 648.269 325.495 647.499 325.495C646.753 325.495 645.959 325.612 645.119 325.845C644.303 326.055 643.673 326.265 643.229 326.475L642.564 326.79ZM669.588 315.87H672.178V341H669.588V339.81C667.792 340.837 666.018 341.35 664.268 341.35C662.938 341.35 661.865 341.117 661.048 340.65C660.232 340.183 659.59 339.553 659.123 338.76C658.68 337.967 658.377 337.057 658.213 336.03C658.05 334.98 657.968 333.883 657.968 332.74C657.968 329.333 658.528 326.883 659.648 325.39C660.792 323.897 662.67 323.15 665.283 323.15C666.707 323.15 668.142 323.302 669.588 323.605V315.87ZM664.723 339.005C665.05 339.005 665.4 338.982 665.773 338.935C666.17 338.865 666.555 338.783 666.928 338.69C667.325 338.573 667.687 338.457 668.013 338.34C668.363 338.223 668.655 338.118 668.888 338.025L669.588 337.71V325.845C668.095 325.565 666.707 325.425 665.423 325.425C663.65 325.425 662.413 325.985 661.713 327.105C661.013 328.225 660.663 329.987 660.663 332.39C660.663 333.137 660.698 333.907 660.768 334.7C660.838 335.47 661.002 336.182 661.258 336.835C661.538 337.465 661.947 337.99 662.483 338.41C663.043 338.807 663.79 339.005 664.723 339.005ZM697.309 328.785V337.745C697.379 338.608 698.056 339.122 699.339 339.285L699.234 341.35C697.391 341.35 696.002 340.883 695.069 339.95C692.992 340.883 690.892 341.35 688.769 341.35C687.159 341.35 685.934 340.895 685.094 339.985C684.254 339.075 683.834 337.768 683.834 336.065C683.834 334.362 684.266 333.113 685.129 332.32C685.992 331.503 687.346 331.002 689.189 330.815L694.684 330.29V328.785C694.684 327.595 694.427 326.743 693.914 326.23C693.401 325.717 692.701 325.46 691.814 325.46C690.881 325.46 689.924 325.495 688.944 325.565C687.987 325.612 687.007 325.693 686.004 325.81L684.919 325.915L684.814 323.92C687.311 323.407 689.586 323.15 691.639 323.15C693.622 323.15 695.057 323.605 695.944 324.515C696.854 325.402 697.309 326.825 697.309 328.785ZM686.529 335.925C686.529 338.072 687.416 339.145 689.189 339.145C690.752 339.145 692.316 338.877 693.879 338.34L694.684 338.06V332.285L689.504 332.775C688.454 332.868 687.696 333.172 687.229 333.685C686.762 334.198 686.529 334.945 686.529 335.925ZM713.408 337.71V323.5H716.033V341H713.408V339.775C711.658 340.825 709.932 341.35 708.228 341.35C707.038 341.35 706.058 341.21 705.288 340.93C704.518 340.65 703.912 340.172 703.468 339.495C703.048 338.818 702.745 337.932 702.558 336.835C702.395 335.715 702.313 334.315 702.313 332.635V323.5H704.938V332.6C704.938 333.86 704.985 334.91 705.078 335.75C705.172 336.567 705.347 337.22 705.603 337.71C705.86 338.2 706.233 338.538 706.723 338.725C707.213 338.912 707.843 339.005 708.613 339.005C709.383 339.005 710.165 338.9 710.958 338.69C711.752 338.457 712.358 338.235 712.778 338.025L713.408 337.71ZM730.147 323.5V325.775H724.582V334.14C724.582 336.17 724.734 337.488 725.037 338.095C725.317 338.725 726.005 339.04 727.102 339.04L730.217 338.83L730.392 341C729.599 341.117 728.899 341.21 728.292 341.28C727.709 341.35 727.219 341.385 726.822 341.385C725.912 341.385 725.142 341.28 724.512 341.07C723.905 340.883 723.415 340.545 723.042 340.055C722.669 339.565 722.4 338.912 722.237 338.095C722.074 337.278 721.992 336.24 721.992 334.98V325.775H719.507V323.5H721.992V318.145H724.582V323.5H730.147ZM735.978 326.545V341H733.353V315.87H735.978V324.48C737.868 323.593 739.664 323.15 741.368 323.15C742.534 323.15 743.491 323.302 744.238 323.605C745.008 323.885 745.614 324.363 746.058 325.04C746.524 325.717 746.839 326.603 747.003 327.7C747.189 328.797 747.283 330.15 747.283 331.76V341H744.658V331.83C744.658 330.617 744.599 329.602 744.483 328.785C744.389 327.968 744.203 327.315 743.923 326.825C743.666 326.335 743.293 325.997 742.803 325.81C742.313 325.6 741.683 325.495 740.913 325.495C739.466 325.495 738.043 325.763 736.643 326.3L735.978 326.545ZM751.381 332.215C751.381 330.605 751.51 329.228 751.766 328.085C752.046 326.942 752.49 326.008 753.096 325.285C753.703 324.538 754.485 324.002 755.441 323.675C756.398 323.325 757.553 323.15 758.906 323.15C760.26 323.15 761.403 323.325 762.336 323.675C763.293 324.002 764.063 324.538 764.646 325.285C765.253 326.008 765.685 326.942 765.941 328.085C766.221 329.228 766.361 330.605 766.361 332.215C766.361 333.825 766.233 335.202 765.976 336.345C765.743 337.488 765.335 338.433 764.751 339.18C764.168 339.927 763.398 340.475 762.441 340.825C761.485 341.175 760.295 341.35 758.871 341.35C757.448 341.35 756.258 341.175 755.301 340.825C754.345 340.475 753.575 339.927 752.991 339.18C752.408 338.433 751.988 337.488 751.731 336.345C751.498 335.202 751.381 333.825 751.381 332.215ZM754.076 332.145C754.076 333.428 754.135 334.513 754.251 335.4C754.391 336.263 754.636 336.975 754.986 337.535C755.36 338.072 755.861 338.468 756.491 338.725C757.121 338.958 757.926 339.075 758.906 339.075C759.886 339.075 760.68 338.958 761.286 338.725C761.916 338.492 762.406 338.107 762.756 337.57C763.106 337.01 763.34 336.298 763.456 335.435C763.596 334.548 763.666 333.463 763.666 332.18C763.666 330.897 763.585 329.823 763.421 328.96C763.281 328.097 763.025 327.408 762.651 326.895C762.278 326.358 761.788 325.985 761.181 325.775C760.575 325.542 759.816 325.425 758.906 325.425C757.996 325.425 757.226 325.542 756.596 325.775C755.99 325.985 755.5 326.358 755.126 326.895C754.753 327.408 754.485 328.097 754.321 328.96C754.158 329.8 754.076 330.862 754.076 332.145ZM773.268 341H770.643V323.5H773.233V325.88C775.239 324.503 777.374 323.582 779.638 323.115V325.775C779.148 325.868 778.634 325.997 778.098 326.16C777.584 326.323 777.071 326.498 776.558 326.685C776.068 326.848 775.613 327.023 775.193 327.21C774.773 327.397 774.423 327.56 774.143 327.7L773.268 328.155V341ZM785.367 341V323.5H782.742V341H785.367ZM785.367 319.545V316.5H782.742V319.545H785.367ZM799.148 325.845L789.348 338.655V341H802.333V338.655H792.533L802.333 325.845V323.5H789.348V325.845H799.148ZM818.681 328.785V337.745C818.751 338.608 819.428 339.122 820.711 339.285L820.606 341.35C818.763 341.35 817.374 340.883 816.441 339.95C814.364 340.883 812.264 341.35 810.141 341.35C808.531 341.35 807.306 340.895 806.466 339.985C805.626 339.075 805.206 337.768 805.206 336.065C805.206 334.362 805.638 333.113 806.501 332.32C807.364 331.503 808.718 331.002 810.561 330.815L816.056 330.29V328.785C816.056 327.595 815.799 326.743 815.286 326.23C814.773 325.717 814.073 325.46 813.186 325.46C812.253 325.46 811.296 325.495 810.316 325.565C809.359 325.612 808.379 325.693 807.376 325.81L806.291 325.915L806.186 323.92C808.683 323.407 810.958 323.15 813.011 323.15C814.994 323.15 816.429 323.605 817.316 324.515C818.226 325.402 818.681 326.825 818.681 328.785ZM807.901 335.925C807.901 338.072 808.788 339.145 810.561 339.145C812.124 339.145 813.688 338.877 815.251 338.34L816.056 338.06V332.285L810.876 332.775C809.826 332.868 809.068 333.172 808.601 333.685C808.134 334.198 807.901 334.945 807.901 335.925ZM832.925 323.5V325.775H827.36V334.14C827.36 336.17 827.512 337.488 827.815 338.095C828.095 338.725 828.784 339.04 829.88 339.04L832.995 338.83L833.17 341C832.377 341.117 831.677 341.21 831.07 341.28C830.487 341.35 829.997 341.385 829.6 341.385C828.69 341.385 827.92 341.28 827.29 341.07C826.684 340.883 826.194 340.545 825.82 340.055C825.447 339.565 825.179 338.912 825.015 338.095C824.852 337.278 824.77 336.24 824.77 334.98V325.775H822.285V323.5H824.77V318.145H827.36V323.5H832.925ZM838.756 341V323.5H836.131V341H838.756ZM838.756 319.545V316.5H836.131V319.545H838.756ZM843.017 332.215C843.017 330.605 843.145 329.228 843.402 328.085C843.682 326.942 844.125 326.008 844.732 325.285C845.339 324.538 846.12 324.002 847.077 323.675C848.034 323.325 849.189 323.15 850.542 323.15C851.895 323.15 853.039 323.325 853.972 323.675C854.929 324.002 855.699 324.538 856.282 325.285C856.889 326.008 857.32 326.942 857.577 328.085C857.857 329.228 857.997 330.605 857.997 332.215C857.997 333.825 857.869 335.202 857.612 336.345C857.379 337.488 856.97 338.433 856.387 339.18C855.804 339.927 855.034 340.475 854.077 340.825C853.12 341.175 851.93 341.35 850.507 341.35C849.084 341.35 847.894 341.175 846.937 340.825C845.98 340.475 845.21 339.927 844.627 339.18C844.044 338.433 843.624 337.488 843.367 336.345C843.134 335.202 843.017 333.825 843.017 332.215ZM845.712 332.145C845.712 333.428 845.77 334.513 845.887 335.4C846.027 336.263 846.272 336.975 846.622 337.535C846.995 338.072 847.497 338.468 848.127 338.725C848.757 338.958 849.562 339.075 850.542 339.075C851.522 339.075 852.315 338.958 852.922 338.725C853.552 338.492 854.042 338.107 854.392 337.57C854.742 337.01 854.975 336.298 855.092 335.435C855.232 334.548 855.302 333.463 855.302 332.18C855.302 330.897 855.22 329.823 855.057 328.96C854.917 328.097 854.66 327.408 854.287 326.895C853.914 326.358 853.424 325.985 852.817 325.775C852.21 325.542 851.452 325.425 850.542 325.425C849.632 325.425 848.862 325.542 848.232 325.775C847.625 325.985 847.135 326.358 846.762 326.895C846.389 327.408 846.12 328.097 845.957 328.96C845.794 329.8 845.712 330.862 845.712 332.145ZM864.903 326.79V341H862.278V323.5H864.868V324.725C866.758 323.675 868.567 323.15 870.293 323.15C871.46 323.15 872.417 323.302 873.163 323.605C873.933 323.885 874.54 324.363 874.983 325.04C875.45 325.717 875.765 326.603 875.928 327.7C876.115 328.797 876.208 330.15 876.208 331.76V341H873.618V331.83C873.618 330.617 873.56 329.602 873.443 328.785C873.35 327.968 873.163 327.315 872.883 326.825C872.603 326.335 872.218 325.997 871.728 325.81C871.238 325.6 870.608 325.495 869.838 325.495C869.092 325.495 868.298 325.612 867.458 325.845C866.642 326.055 866.012 326.265 865.568 326.475L864.903 326.79ZM894.263 325.495C891.719 325.495 890.448 326.382 890.448 328.155C890.448 328.995 890.739 329.567 891.323 329.87C891.929 330.22 893.259 330.57 895.313 330.92C896.363 331.107 897.249 331.317 897.973 331.55C898.696 331.76 899.279 332.063 899.723 332.46C900.189 332.833 900.516 333.312 900.703 333.895C900.913 334.478 901.018 335.225 901.018 336.135C901.018 337.955 900.446 339.285 899.303 340.125C898.159 340.942 896.468 341.35 894.228 341.35C893.504 341.35 892.711 341.303 891.848 341.21C891.008 341.14 890.098 341.023 889.118 340.86L888.068 340.685L888.208 338.41C889.538 338.597 890.704 338.748 891.708 338.865C892.711 338.958 893.551 339.005 894.228 339.005C895.581 339.005 896.608 338.795 897.308 338.375C898.031 337.932 898.393 337.197 898.393 336.17C898.393 335.19 898.089 334.502 897.483 334.105C896.853 333.732 895.523 333.393 893.493 333.09C892.466 332.927 891.591 332.74 890.868 332.53C890.168 332.297 889.584 332.005 889.118 331.655C888.674 331.282 888.348 330.815 888.138 330.255C887.928 329.695 887.823 328.995 887.823 328.155C887.823 327.315 887.974 326.58 888.278 325.95C888.604 325.32 889.048 324.795 889.608 324.375C890.168 323.955 890.833 323.652 891.603 323.465C892.373 323.255 893.213 323.15 894.123 323.15C894.846 323.15 895.651 323.197 896.538 323.29C897.424 323.36 898.404 323.477 899.478 323.64L900.458 323.815L900.388 326.055C899.081 325.868 897.914 325.728 896.888 325.635C895.884 325.542 895.009 325.495 894.263 325.495ZM916.937 338.83L917.952 338.725L918.022 340.79C916.692 340.977 915.455 341.117 914.312 341.21C913.192 341.303 912.154 341.35 911.197 341.35C908.677 341.35 906.892 340.627 905.842 339.18C904.792 337.71 904.267 335.435 904.267 332.355C904.267 326.218 906.705 323.15 911.582 323.15C913.962 323.15 915.724 323.815 916.867 325.145C918.034 326.452 918.617 328.517 918.617 331.34L918.477 333.335H906.927C906.927 335.295 907.277 336.742 907.977 337.675C908.677 338.585 909.902 339.04 911.652 339.04C913.402 339.04 915.164 338.97 916.937 338.83ZM906.892 331.235H915.992C915.992 329.088 915.642 327.572 914.942 326.685C914.265 325.798 913.157 325.355 911.617 325.355C910.054 325.355 908.875 325.822 908.082 326.755C907.312 327.688 906.915 329.182 906.892 331.235ZM925.333 341H922.708V323.5H925.298V325.88C927.305 324.503 929.44 323.582 931.703 323.115V325.775C931.213 325.868 930.7 325.997 930.163 326.16C929.65 326.323 929.136 326.498 928.623 326.685C928.133 326.848 927.678 327.023 927.258 327.21C926.838 327.397 926.488 327.56 926.208 327.7L925.333 328.155V341ZM938.098 341H943.348L948.283 323.5H945.588L941.353 338.725H940.058L935.963 323.5H933.163L938.098 341ZM954.283 341V323.5H951.658V341H954.283ZM954.283 319.545V316.5H951.658V319.545H954.283ZM965.859 323.15C966.629 323.15 967.936 323.29 969.779 323.57L970.619 323.675L970.514 325.81C968.671 325.6 967.294 325.495 966.384 325.495C965.404 325.495 964.576 325.6 963.899 325.81C963.246 326.02 962.721 326.382 962.324 326.895C961.951 327.408 961.683 328.097 961.519 328.96C961.356 329.8 961.274 330.862 961.274 332.145C961.274 333.428 961.344 334.513 961.484 335.4C961.624 336.263 961.881 336.963 962.254 337.5C962.651 338.037 963.176 338.422 963.829 338.655C964.506 338.888 965.369 339.005 966.419 339.005L970.549 338.69L970.654 340.86C969.558 341.023 968.601 341.14 967.784 341.21C966.991 341.303 966.326 341.35 965.789 341.35C964.436 341.35 963.293 341.187 962.359 340.86C961.449 340.51 960.714 339.973 960.154 339.25C959.594 338.503 959.186 337.547 958.929 336.38C958.696 335.213 958.579 333.802 958.579 332.145C958.579 330.488 958.708 329.088 958.964 327.945C959.244 326.802 959.676 325.88 960.259 325.18C960.843 324.457 961.589 323.943 962.499 323.64C963.433 323.313 964.553 323.15 965.859 323.15ZM986.459 338.83L987.474 338.725L987.544 340.79C986.214 340.977 984.977 341.117 983.834 341.21C982.714 341.303 981.675 341.35 980.719 341.35C978.199 341.35 976.414 340.627 975.364 339.18C974.314 337.71 973.789 335.435 973.789 332.355C973.789 326.218 976.227 323.15 981.104 323.15C983.484 323.15 985.245 323.815 986.389 325.145C987.555 326.452 988.139 328.517 988.139 331.34L987.999 333.335H976.449C976.449 335.295 976.799 336.742 977.499 337.675C978.199 338.585 979.424 339.04 981.174 339.04C982.924 339.04 984.685 338.97 986.459 338.83ZM976.414 331.235H985.514C985.514 329.088 985.164 327.572 984.464 326.685C983.787 325.798 982.679 325.355 981.139 325.355C979.575 325.355 978.397 325.822 977.604 326.755C976.834 327.688 976.437 329.182 976.414 331.235Z" fill="url(#paint0_linear)"/>
<path d="M693.021 131.088C690.485 131.088 688.427 133.146 688.427 135.682C688.643 149.51 686.872 162.836 683.116 176.162C682.614 178.029 683.547 182 687.542 182C689.552 182 691.394 180.684 691.968 178.651C694.552 169.487 697.901 154.654 697.614 135.682C697.614 133.146 695.557 131.088 693.021 131.088ZM692.853 115.441C681.131 115.417 672.949 124.437 673.116 134.796C673.26 143.96 672.399 153.147 670.557 162.071C670.03 164.559 671.633 166.975 674.121 167.502C676.609 168.004 679.026 166.425 679.552 163.937C681.538 154.343 682.447 144.486 682.303 134.653C682.231 129.677 686.107 124.604 692.71 124.628C698.715 124.724 703.667 129.485 703.738 135.251C703.906 144.438 703.212 153.673 701.705 162.717C701.298 165.205 702.997 167.573 705.509 168.004C709.313 168.626 710.628 165.109 710.772 164.2C712.351 154.63 713.092 144.845 712.925 135.107C712.757 124.413 703.762 115.609 692.853 115.441ZM671.681 111.661C669.695 110.058 666.825 110.345 665.198 112.307C660.318 118.336 657.662 125.968 657.782 133.744C657.901 140.945 657.327 148.17 656.059 155.204C655.605 157.692 657.255 160.085 659.743 160.54C663.595 161.209 664.935 157.692 665.102 156.831C666.466 149.199 667.112 141.4 666.968 133.6C666.897 127.882 668.739 122.523 672.327 118.121C673.93 116.135 673.643 113.264 671.681 111.661ZM692.614 99.7226C689.671 99.6508 686.705 99.9858 683.858 100.68C681.394 101.254 679.863 103.742 680.437 106.206C681.035 108.67 683.499 110.178 685.987 109.604C688.092 109.125 690.27 108.886 692.494 108.91C706.92 109.125 718.834 120.681 719.073 134.677C719.169 141.926 718.81 149.223 717.997 156.424C717.71 158.936 719.528 161.209 722.04 161.497C725.245 161.879 726.92 159.224 727.111 157.453C727.997 149.845 728.379 142.189 728.26 134.533C727.949 115.633 711.968 100.01 692.614 99.7226ZM740.867 122.978C740.317 120.489 737.901 118.91 735.389 119.461C732.901 120.011 731.346 122.475 731.896 124.939C732.805 129.055 732.829 132.117 732.805 136.734C732.781 139.27 734.815 141.352 737.351 141.376H737.399C739.911 141.376 741.968 139.342 741.992 136.806C742.016 132.571 742.063 128.361 740.867 122.978ZM733.188 105.608C723.858 92.3299 708.619 84.2434 692.375 84.0041C679.026 83.8367 666.681 88.7652 657.495 97.9762C648.619 106.852 643.834 118.647 644.026 131.208L644.002 135.323C643.93 137.859 645.916 139.964 648.452 140.036C648.499 140.06 648.547 140.06 648.595 140.06C651.083 140.06 653.117 138.074 653.188 135.586L653.212 131.064C653.069 121.016 656.873 111.566 663.978 104.46C671.418 97.0431 681.466 93.0477 692.255 93.1913C705.533 93.3827 718.044 100.01 725.676 110.872C727.135 112.953 729.982 113.455 732.064 111.996C734.145 110.537 734.647 107.69 733.188 105.608Z" fill="url(#paint1_linear)"/>
<path d="M661 207H667.437V251.923H661V207ZM675.588 207H691.179C695.614 207 697.831 209.105 697.831 213.315V245.608C697.831 249.818 695.614 251.923 691.179 251.923H675.588V207ZM691.322 244.747V214.176C691.322 213.315 691.179 212.765 690.893 212.526C690.607 212.239 690.035 212.095 689.177 212.095H682.096V246.828H689.177C690.035 246.828 690.607 246.708 690.893 246.469C691.179 246.182 691.322 245.608 691.322 244.747ZM710.999 226.089H718.866C723.3 226.089 725.518 228.218 725.518 232.476V245.608C725.518 249.818 723.3 251.923 718.866 251.923H711.285C706.803 251.923 704.562 249.818 704.562 245.608V213.315C704.562 209.105 706.803 207 711.285 207H718.652C723.086 207 725.303 209.105 725.303 213.315V221.065H718.938V214.32C718.938 213.459 718.795 212.908 718.508 212.669C718.222 212.382 717.65 212.239 716.792 212.239H713.144C712.286 212.239 711.714 212.382 711.428 212.669C711.142 212.908 710.999 213.459 710.999 214.32V226.089ZM719.081 244.603V233.337C719.081 232.523 718.938 231.973 718.652 231.686C718.365 231.399 717.793 231.256 716.935 231.256H710.999V244.603C710.999 245.464 711.142 246.039 711.428 246.326C711.714 246.565 712.286 246.684 713.144 246.684H716.935C717.793 246.684 718.365 246.565 718.652 246.326C718.938 246.039 719.081 245.464 719.081 244.603Z" fill="url(#paint2_linear)"/>
<defs>
<linearGradient id="paint0_linear" x1="395" y1="309" x2="401.272" y2="395.173" gradientUnits="userSpaceOnUse">
<stop stop-color="#21D4FD"/>
<stop offset="0.442708" stop-color="#6385FE"/>
<stop offset="1" stop-color="#B721FF"/>
</linearGradient>
<linearGradient id="paint1_linear" x1="644" y1="84" x2="740.462" y2="182" gradientUnits="userSpaceOnUse">
<stop stop-color="#21D4FD"/>
<stop offset="0.442708" stop-color="#6385FE"/>
<stop offset="1" stop-color="#B721FF"/>
</linearGradient>
<linearGradient id="paint2_linear" x1="661" y1="207" x2="702.245" y2="267.179" gradientUnits="userSpaceOnUse">
<stop stop-color="#21D4FD"/>
<stop offset="0.442708" stop-color="#6385FE"/>
<stop offset="1" stop-color="#B721FF"/>
</linearGradient>
</defs>
</svg>
