<svg width="1385" height="464" viewBox="0 0 1385 464" fill="none" xmlns="http://www.w3.org/2000/svg">
<rect width="1385" height="464" fill="#282D2D"/>
<path d="M416.872 337L418.622 330.77H428.982L430.732 337H433.392L426.742 312.78H420.862L414.212 337H416.872ZM424.712 315.09L428.387 328.355H419.217L422.892 315.09H424.712ZM447.661 333.71V319.5H450.286V337H447.661V335.775C445.911 336.825 444.185 337.35 442.481 337.35C441.291 337.35 440.311 337.21 439.541 336.93C438.771 336.65 438.165 336.172 437.721 335.495C437.301 334.818 436.998 333.932 436.811 332.835C436.648 331.715 436.566 330.315 436.566 328.635V319.5H439.191V328.6C439.191 329.86 439.238 330.91 439.331 331.75C439.425 332.567 439.6 333.22 439.856 333.71C440.113 334.2 440.486 334.538 440.976 334.725C441.466 334.912 442.096 335.005 442.866 335.005C443.636 335.005 444.418 334.9 445.211 334.69C446.005 334.457 446.611 334.235 447.031 334.025L447.661 333.71ZM464.4 319.5V321.775H458.835V330.14C458.835 332.17 458.987 333.488 459.29 334.095C459.57 334.725 460.258 335.04 461.355 335.04L464.47 334.83L464.645 337C463.852 337.117 463.152 337.21 462.545 337.28C461.962 337.35 461.472 337.385 461.075 337.385C460.165 337.385 459.395 337.28 458.765 337.07C458.158 336.883 457.668 336.545 457.295 336.055C456.922 335.565 456.653 334.912 456.49 334.095C456.327 333.278 456.245 332.24 456.245 330.98V321.775H453.76V319.5H456.245V314.145H458.835V319.5H464.4ZM470.23 322.545V337H467.605V311.87H470.23V320.48C472.12 319.593 473.917 319.15 475.62 319.15C476.787 319.15 477.744 319.302 478.49 319.605C479.26 319.885 479.867 320.363 480.31 321.04C480.777 321.717 481.092 322.603 481.255 323.7C481.442 324.797 481.535 326.15 481.535 327.76V337H478.91V327.83C478.91 326.617 478.852 325.602 478.735 324.785C478.642 323.968 478.455 323.315 478.175 322.825C477.919 322.335 477.545 321.997 477.055 321.81C476.565 321.6 475.935 321.495 475.165 321.495C473.719 321.495 472.295 321.763 470.895 322.3L470.23 322.545ZM498.304 334.83L499.319 334.725L499.389 336.79C498.059 336.977 496.823 337.117 495.679 337.21C494.559 337.303 493.521 337.35 492.564 337.35C490.044 337.35 488.259 336.627 487.209 335.18C486.159 333.71 485.634 331.435 485.634 328.355C485.634 322.218 488.073 319.15 492.949 319.15C495.329 319.15 497.091 319.815 498.234 321.145C499.401 322.452 499.984 324.517 499.984 327.34L499.844 329.335H488.294C488.294 331.295 488.644 332.742 489.344 333.675C490.044 334.585 491.269 335.04 493.019 335.04C494.769 335.04 496.531 334.97 498.304 334.83ZM488.259 327.235H497.359C497.359 325.088 497.009 323.572 496.309 322.685C495.633 321.798 494.524 321.355 492.984 321.355C491.421 321.355 490.243 321.822 489.449 322.755C488.679 323.688 488.283 325.182 488.259 327.235ZM506.7 322.79V337H504.075V319.5H506.665V320.725C508.555 319.675 510.364 319.15 512.09 319.15C513.257 319.15 514.214 319.302 514.96 319.605C515.73 319.885 516.337 320.363 516.78 321.04C517.247 321.717 517.562 322.603 517.725 323.7C517.912 324.797 518.005 326.15 518.005 327.76V337H515.415V327.83C515.415 326.617 515.357 325.602 515.24 324.785C515.147 323.968 514.96 323.315 514.68 322.825C514.4 322.335 514.015 321.997 513.525 321.81C513.035 321.6 512.405 321.495 511.635 321.495C510.889 321.495 510.095 321.612 509.255 321.845C508.439 322.055 507.809 322.265 507.365 322.475L506.7 322.79ZM531.939 319.5V321.775H526.374V330.14C526.374 332.17 526.526 333.488 526.829 334.095C527.109 334.725 527.797 335.04 528.894 335.04L532.009 334.83L532.184 337C531.391 337.117 530.691 337.21 530.084 337.28C529.501 337.35 529.011 337.385 528.614 337.385C527.704 337.385 526.934 337.28 526.304 337.07C525.697 336.883 525.207 336.545 524.834 336.055C524.461 335.565 524.192 334.912 524.029 334.095C523.866 333.278 523.784 332.24 523.784 330.98V321.775H521.299V319.5H523.784V314.145H526.374V319.5H531.939ZM537.77 337V319.5H535.145V337H537.77ZM537.77 315.545V312.5H535.145V315.545H537.77ZM549.346 319.15C550.116 319.15 551.422 319.29 553.266 319.57L554.106 319.675L554.001 321.81C552.157 321.6 550.781 321.495 549.871 321.495C548.891 321.495 548.062 321.6 547.386 321.81C546.732 322.02 546.207 322.382 545.811 322.895C545.437 323.408 545.169 324.097 545.006 324.96C544.842 325.8 544.761 326.862 544.761 328.145C544.761 329.428 544.831 330.513 544.971 331.4C545.111 332.263 545.367 332.963 545.741 333.5C546.137 334.037 546.662 334.422 547.316 334.655C547.992 334.888 548.856 335.005 549.906 335.005L554.036 334.69L554.141 336.86C553.044 337.023 552.087 337.14 551.271 337.21C550.477 337.303 549.812 337.35 549.276 337.35C547.922 337.35 546.779 337.187 545.846 336.86C544.936 336.51 544.201 335.973 543.641 335.25C543.081 334.503 542.672 333.547 542.416 332.38C542.182 331.213 542.066 329.802 542.066 328.145C542.066 326.488 542.194 325.088 542.451 323.945C542.731 322.802 543.162 321.88 543.746 321.18C544.329 320.457 545.076 319.943 545.986 319.64C546.919 319.313 548.039 319.15 549.346 319.15ZM570.4 324.785V333.745C570.47 334.608 571.147 335.122 572.43 335.285L572.325 337.35C570.482 337.35 569.093 336.883 568.16 335.95C566.083 336.883 563.983 337.35 561.86 337.35C560.25 337.35 559.025 336.895 558.185 335.985C557.345 335.075 556.925 333.768 556.925 332.065C556.925 330.362 557.357 329.113 558.22 328.32C559.083 327.503 560.437 327.002 562.28 326.815L567.775 326.29V324.785C567.775 323.595 567.518 322.743 567.005 322.23C566.492 321.717 565.792 321.46 564.905 321.46C563.972 321.46 563.015 321.495 562.035 321.565C561.078 321.612 560.098 321.693 559.095 321.81L558.01 321.915L557.905 319.92C560.402 319.407 562.677 319.15 564.73 319.15C566.713 319.15 568.148 319.605 569.035 320.515C569.945 321.402 570.4 322.825 570.4 324.785ZM559.62 331.925C559.62 334.072 560.507 335.145 562.28 335.145C563.843 335.145 565.407 334.877 566.97 334.34L567.775 334.06V328.285L562.595 328.775C561.545 328.868 560.787 329.172 560.32 329.685C559.853 330.198 559.62 330.945 559.62 331.925ZM584.644 319.5V321.775H579.079V330.14C579.079 332.17 579.231 333.488 579.534 334.095C579.814 334.725 580.502 335.04 581.599 335.04L584.714 334.83L584.889 337C584.096 337.117 583.396 337.21 582.789 337.28C582.206 337.35 581.716 337.385 581.319 337.385C580.409 337.385 579.639 337.28 579.009 337.07C578.402 336.883 577.912 336.545 577.539 336.055C577.166 335.565 576.897 334.912 576.734 334.095C576.571 333.278 576.489 332.24 576.489 330.98V321.775H574.004V319.5H576.489V314.145H579.079V319.5H584.644ZM590.475 337V319.5H587.85V337H590.475ZM590.475 315.545V312.5H587.85V315.545H590.475ZM594.736 328.215C594.736 326.605 594.864 325.228 595.121 324.085C595.401 322.942 595.844 322.008 596.451 321.285C597.058 320.538 597.839 320.002 598.796 319.675C599.753 319.325 600.908 319.15 602.261 319.15C603.614 319.15 604.758 319.325 605.691 319.675C606.648 320.002 607.418 320.538 608.001 321.285C608.608 322.008 609.039 322.942 609.296 324.085C609.576 325.228 609.716 326.605 609.716 328.215C609.716 329.825 609.588 331.202 609.331 332.345C609.098 333.488 608.689 334.433 608.106 335.18C607.523 335.927 606.753 336.475 605.796 336.825C604.839 337.175 603.649 337.35 602.226 337.35C600.803 337.35 599.613 337.175 598.656 336.825C597.699 336.475 596.929 335.927 596.346 335.18C595.763 334.433 595.343 333.488 595.086 332.345C594.853 331.202 594.736 329.825 594.736 328.215ZM597.431 328.145C597.431 329.428 597.489 330.513 597.606 331.4C597.746 332.263 597.991 332.975 598.341 333.535C598.714 334.072 599.216 334.468 599.846 334.725C600.476 334.958 601.281 335.075 602.261 335.075C603.241 335.075 604.034 334.958 604.641 334.725C605.271 334.492 605.761 334.107 606.111 333.57C606.461 333.01 606.694 332.298 606.811 331.435C606.951 330.548 607.021 329.463 607.021 328.18C607.021 326.897 606.939 325.823 606.776 324.96C606.636 324.097 606.379 323.408 606.006 322.895C605.633 322.358 605.143 321.985 604.536 321.775C603.929 321.542 603.171 321.425 602.261 321.425C601.351 321.425 600.581 321.542 599.951 321.775C599.344 321.985 598.854 322.358 598.481 322.895C598.108 323.408 597.839 324.097 597.676 324.96C597.513 325.8 597.431 326.862 597.431 328.145ZM616.622 322.79V337H613.997V319.5H616.587V320.725C618.477 319.675 620.285 319.15 622.012 319.15C623.179 319.15 624.135 319.302 624.882 319.605C625.652 319.885 626.259 320.363 626.702 321.04C627.169 321.717 627.484 322.603 627.647 323.7C627.834 324.797 627.927 326.15 627.927 327.76V337H625.337V327.83C625.337 326.617 625.279 325.602 625.162 324.785C625.069 323.968 624.882 323.315 624.602 322.825C624.322 322.335 623.937 321.997 623.447 321.81C622.957 321.6 622.327 321.495 621.557 321.495C620.81 321.495 620.017 321.612 619.177 321.845C618.36 322.055 617.73 322.265 617.287 322.475L616.622 322.79ZM641.466 337L643.216 330.77H653.576L655.326 337H657.986L651.336 312.78H645.456L638.806 337H641.466ZM649.306 315.09L652.981 328.355H643.811L647.486 315.09H649.306ZM663.961 322.79V337H661.336V319.5H663.926V320.725C665.816 319.675 667.624 319.15 669.351 319.15C670.518 319.15 671.474 319.302 672.221 319.605C672.991 319.885 673.598 320.363 674.041 321.04C674.508 321.717 674.823 322.603 674.986 323.7C675.173 324.797 675.266 326.15 675.266 327.76V337H672.676V327.83C672.676 326.617 672.618 325.602 672.501 324.785C672.408 323.968 672.221 323.315 671.941 322.825C671.661 322.335 671.276 321.997 670.786 321.81C670.296 321.6 669.666 321.495 668.896 321.495C668.149 321.495 667.356 321.612 666.516 321.845C665.699 322.055 665.069 322.265 664.626 322.475L663.961 322.79ZM690.985 311.87H693.575V337H690.985V335.81C689.188 336.837 687.415 337.35 685.665 337.35C684.335 337.35 683.261 337.117 682.445 336.65C681.628 336.183 680.986 335.553 680.52 334.76C680.076 333.967 679.773 333.057 679.61 332.03C679.446 330.98 679.365 329.883 679.365 328.74C679.365 325.333 679.925 322.883 681.045 321.39C682.188 319.897 684.066 319.15 686.68 319.15C688.103 319.15 689.538 319.302 690.985 319.605V311.87ZM686.12 335.005C686.446 335.005 686.796 334.982 687.17 334.935C687.566 334.865 687.951 334.783 688.325 334.69C688.721 334.573 689.083 334.457 689.41 334.34C689.76 334.223 690.051 334.118 690.285 334.025L690.985 333.71V321.845C689.491 321.565 688.103 321.425 686.82 321.425C685.046 321.425 683.81 321.985 683.11 323.105C682.41 324.225 682.06 325.987 682.06 328.39C682.06 329.137 682.095 329.907 682.165 330.7C682.235 331.47 682.398 332.182 682.655 332.835C682.935 333.465 683.343 333.99 683.88 334.41C684.44 334.807 685.186 335.005 686.12 335.005ZM707.331 337L709.081 330.77H719.441L721.191 337H723.851L717.201 312.78H711.321L704.671 337H707.331ZM715.171 315.09L718.846 328.355H709.676L713.351 315.09H715.171ZM738.12 333.71V319.5H740.745V337H738.12V335.775C736.37 336.825 734.644 337.35 732.94 337.35C731.75 337.35 730.77 337.21 730 336.93C729.23 336.65 728.624 336.172 728.18 335.495C727.76 334.818 727.457 333.932 727.27 332.835C727.107 331.715 727.025 330.315 727.025 328.635V319.5H729.65V328.6C729.65 329.86 729.697 330.91 729.79 331.75C729.884 332.567 730.059 333.22 730.315 333.71C730.572 334.2 730.945 334.538 731.435 334.725C731.925 334.912 732.555 335.005 733.325 335.005C734.095 335.005 734.877 334.9 735.67 334.69C736.464 334.457 737.07 334.235 737.49 334.025L738.12 333.71ZM754.859 319.5V321.775H749.294V330.14C749.294 332.17 749.446 333.488 749.749 334.095C750.029 334.725 750.717 335.04 751.814 335.04L754.929 334.83L755.104 337C754.311 337.117 753.611 337.21 753.004 337.28C752.421 337.35 751.931 337.385 751.534 337.385C750.624 337.385 749.854 337.28 749.224 337.07C748.617 336.883 748.127 336.545 747.754 336.055C747.381 335.565 747.112 334.912 746.949 334.095C746.786 333.278 746.704 332.24 746.704 330.98V321.775H744.219V319.5H746.704V314.145H749.294V319.5H754.859ZM760.689 322.545V337H758.064V311.87H760.689V320.48C762.579 319.593 764.376 319.15 766.079 319.15C767.246 319.15 768.203 319.302 768.949 319.605C769.719 319.885 770.326 320.363 770.769 321.04C771.236 321.717 771.551 322.603 771.714 323.7C771.901 324.797 771.994 326.15 771.994 327.76V337H769.369V327.83C769.369 326.617 769.311 325.602 769.194 324.785C769.101 323.968 768.914 323.315 768.634 322.825C768.378 322.335 768.004 321.997 767.514 321.81C767.024 321.6 766.394 321.495 765.624 321.495C764.178 321.495 762.754 321.763 761.354 322.3L760.689 322.545ZM776.093 328.215C776.093 326.605 776.222 325.228 776.478 324.085C776.758 322.942 777.202 322.008 777.808 321.285C778.415 320.538 779.197 320.002 780.153 319.675C781.11 319.325 782.265 319.15 783.618 319.15C784.972 319.15 786.115 319.325 787.048 319.675C788.005 320.002 788.775 320.538 789.358 321.285C789.965 322.008 790.397 322.942 790.653 324.085C790.933 325.228 791.073 326.605 791.073 328.215C791.073 329.825 790.945 331.202 790.688 332.345C790.455 333.488 790.047 334.433 789.463 335.18C788.88 335.927 788.11 336.475 787.153 336.825C786.197 337.175 785.007 337.35 783.583 337.35C782.16 337.35 780.97 337.175 780.013 336.825C779.057 336.475 778.287 335.927 777.703 335.18C777.12 334.433 776.7 333.488 776.443 332.345C776.21 331.202 776.093 329.825 776.093 328.215ZM778.788 328.145C778.788 329.428 778.847 330.513 778.963 331.4C779.103 332.263 779.348 332.975 779.698 333.535C780.072 334.072 780.573 334.468 781.203 334.725C781.833 334.958 782.638 335.075 783.618 335.075C784.598 335.075 785.392 334.958 785.998 334.725C786.628 334.492 787.118 334.107 787.468 333.57C787.818 333.01 788.052 332.298 788.168 331.435C788.308 330.548 788.378 329.463 788.378 328.18C788.378 326.897 788.297 325.823 788.133 324.96C787.993 324.097 787.737 323.408 787.363 322.895C786.99 322.358 786.5 321.985 785.893 321.775C785.287 321.542 784.528 321.425 783.618 321.425C782.708 321.425 781.938 321.542 781.308 321.775C780.702 321.985 780.212 322.358 779.838 322.895C779.465 323.408 779.197 324.097 779.033 324.96C778.87 325.8 778.788 326.862 778.788 328.145ZM797.979 337H795.354V319.5H797.944V321.88C799.951 320.503 802.086 319.582 804.349 319.115V321.775C803.859 321.868 803.346 321.997 802.809 322.16C802.296 322.323 801.783 322.498 801.269 322.685C800.779 322.848 800.324 323.023 799.904 323.21C799.484 323.397 799.134 323.56 798.854 323.7L797.979 324.155V337ZM810.079 337V319.5H807.454V337H810.079ZM810.079 315.545V312.5H807.454V315.545H810.079ZM823.86 321.845L814.06 334.655V337H827.045V334.655H817.245L827.045 321.845V319.5H814.06V321.845H823.86ZM843.393 324.785V333.745C843.463 334.608 844.14 335.122 845.423 335.285L845.318 337.35C843.475 337.35 842.086 336.883 841.153 335.95C839.076 336.883 836.976 337.35 834.853 337.35C833.243 337.35 832.018 336.895 831.178 335.985C830.338 335.075 829.918 333.768 829.918 332.065C829.918 330.362 830.35 329.113 831.213 328.32C832.076 327.503 833.43 327.002 835.273 326.815L840.768 326.29V324.785C840.768 323.595 840.511 322.743 839.998 322.23C839.485 321.717 838.785 321.46 837.898 321.46C836.965 321.46 836.008 321.495 835.028 321.565C834.071 321.612 833.091 321.693 832.088 321.81L831.003 321.915L830.898 319.92C833.395 319.407 835.67 319.15 837.723 319.15C839.706 319.15 841.141 319.605 842.028 320.515C842.938 321.402 843.393 322.825 843.393 324.785ZM832.613 331.925C832.613 334.072 833.5 335.145 835.273 335.145C836.836 335.145 838.4 334.877 839.963 334.34L840.768 334.06V328.285L835.588 328.775C834.538 328.868 833.78 329.172 833.313 329.685C832.846 330.198 832.613 330.945 832.613 331.925ZM857.637 319.5V321.775H852.072V330.14C852.072 332.17 852.224 333.488 852.527 334.095C852.807 334.725 853.496 335.04 854.592 335.04L857.707 334.83L857.882 337C857.089 337.117 856.389 337.21 855.782 337.28C855.199 337.35 854.709 337.385 854.312 337.385C853.402 337.385 852.632 337.28 852.002 337.07C851.396 336.883 850.906 336.545 850.532 336.055C850.159 335.565 849.891 334.912 849.727 334.095C849.564 333.278 849.482 332.24 849.482 330.98V321.775H846.997V319.5H849.482V314.145H852.072V319.5H857.637ZM863.468 337V319.5H860.843V337H863.468ZM863.468 315.545V312.5H860.843V315.545H863.468ZM867.729 328.215C867.729 326.605 867.857 325.228 868.114 324.085C868.394 322.942 868.837 322.008 869.444 321.285C870.051 320.538 870.832 320.002 871.789 319.675C872.746 319.325 873.901 319.15 875.254 319.15C876.607 319.15 877.751 319.325 878.684 319.675C879.641 320.002 880.411 320.538 880.994 321.285C881.601 322.008 882.032 322.942 882.289 324.085C882.569 325.228 882.709 326.605 882.709 328.215C882.709 329.825 882.581 331.202 882.324 332.345C882.091 333.488 881.682 334.433 881.099 335.18C880.516 335.927 879.746 336.475 878.789 336.825C877.832 337.175 876.642 337.35 875.219 337.35C873.796 337.35 872.606 337.175 871.649 336.825C870.692 336.475 869.922 335.927 869.339 335.18C868.756 334.433 868.336 333.488 868.079 332.345C867.846 331.202 867.729 329.825 867.729 328.215ZM870.424 328.145C870.424 329.428 870.482 330.513 870.599 331.4C870.739 332.263 870.984 332.975 871.334 333.535C871.707 334.072 872.209 334.468 872.839 334.725C873.469 334.958 874.274 335.075 875.254 335.075C876.234 335.075 877.027 334.958 877.634 334.725C878.264 334.492 878.754 334.107 879.104 333.57C879.454 333.01 879.687 332.298 879.804 331.435C879.944 330.548 880.014 329.463 880.014 328.18C880.014 326.897 879.932 325.823 879.769 324.96C879.629 324.097 879.372 323.408 878.999 322.895C878.626 322.358 878.136 321.985 877.529 321.775C876.922 321.542 876.164 321.425 875.254 321.425C874.344 321.425 873.574 321.542 872.944 321.775C872.337 321.985 871.847 322.358 871.474 322.895C871.101 323.408 870.832 324.097 870.669 324.96C870.506 325.8 870.424 326.862 870.424 328.145ZM889.615 322.79V337H886.99V319.5H889.58V320.725C891.47 319.675 893.279 319.15 895.005 319.15C896.172 319.15 897.129 319.302 897.875 319.605C898.645 319.885 899.252 320.363 899.695 321.04C900.162 321.717 900.477 322.603 900.64 323.7C900.827 324.797 900.92 326.15 900.92 327.76V337H898.33V327.83C898.33 326.617 898.272 325.602 898.155 324.785C898.062 323.968 897.875 323.315 897.595 322.825C897.315 322.335 896.93 321.997 896.44 321.81C895.95 321.6 895.32 321.495 894.55 321.495C893.804 321.495 893.01 321.612 892.17 321.845C891.354 322.055 890.724 322.265 890.28 322.475L889.615 322.79ZM914.459 337L916.209 330.77H926.569L928.319 337H930.979L924.329 312.78H918.449L911.799 337H914.459ZM922.299 315.09L925.974 328.355H916.804L920.479 315.09H922.299ZM935.309 337L937.059 330.77H947.419L949.169 337H951.829L945.179 312.78H939.299L932.649 337H935.309ZM943.149 315.09L946.824 328.355H937.654L941.329 315.09H943.149ZM962.319 314.775C958.819 314.775 957.069 316.093 957.069 318.73C957.069 319.453 957.15 320.06 957.314 320.55C957.5 321.017 957.815 321.425 958.259 321.775C958.725 322.102 959.355 322.382 960.149 322.615C960.942 322.848 961.957 323.105 963.194 323.385C964.43 323.665 965.469 323.968 966.309 324.295C967.172 324.622 967.872 325.03 968.409 325.52C968.945 326.01 969.33 326.605 969.564 327.305C969.82 328.005 969.949 328.857 969.949 329.86C969.949 334.83 967.37 337.315 962.214 337.315C961.35 337.315 960.382 337.257 959.309 337.14C958.259 337.047 957.092 336.907 955.809 336.72L954.549 336.545L954.829 334.305C958.025 334.725 960.44 334.935 962.074 334.935C965.527 334.935 967.254 333.313 967.254 330.07C967.254 329.417 967.16 328.868 966.974 328.425C966.81 327.958 966.519 327.573 966.099 327.27C965.702 326.943 965.154 326.675 964.454 326.465C963.777 326.232 962.914 326.01 961.864 325.8C960.51 325.52 959.355 325.205 958.399 324.855C957.442 324.505 956.66 324.073 956.054 323.56C955.447 323.023 955.004 322.382 954.724 321.635C954.467 320.888 954.339 319.978 954.339 318.905C954.339 314.565 956.94 312.395 962.144 312.395C963.847 312.395 965.889 312.57 968.269 312.92L969.459 313.095L969.214 315.37C967.58 315.183 966.192 315.043 965.049 314.95C963.905 314.833 962.995 314.775 962.319 314.775Z" fill="url(#paint0_linear)"/>
<path d="M693.021 131.088C690.485 131.088 688.427 133.146 688.427 135.682C688.643 149.51 686.872 162.836 683.116 176.162C682.614 178.029 683.547 182 687.542 182C689.552 182 691.394 180.684 691.968 178.651C694.552 169.487 697.901 154.654 697.614 135.682C697.614 133.146 695.557 131.088 693.021 131.088ZM692.853 115.441C681.131 115.417 672.949 124.437 673.116 134.796C673.26 143.96 672.399 153.147 670.557 162.071C670.03 164.559 671.633 166.975 674.121 167.502C676.609 168.004 679.026 166.425 679.552 163.937C681.538 154.343 682.447 144.486 682.303 134.653C682.231 129.677 686.107 124.604 692.71 124.628C698.715 124.724 703.667 129.485 703.738 135.251C703.906 144.438 703.212 153.673 701.705 162.717C701.298 165.205 702.997 167.573 705.509 168.004C709.313 168.626 710.628 165.109 710.772 164.2C712.351 154.63 713.092 144.845 712.925 135.107C712.757 124.413 703.762 115.609 692.853 115.441ZM671.681 111.661C669.695 110.058 666.825 110.345 665.198 112.307C660.318 118.336 657.662 125.968 657.782 133.744C657.901 140.945 657.327 148.17 656.059 155.204C655.605 157.692 657.255 160.085 659.743 160.54C663.595 161.209 664.935 157.692 665.102 156.831C666.466 149.199 667.112 141.4 666.968 133.6C666.897 127.882 668.739 122.523 672.327 118.121C673.93 116.135 673.643 113.264 671.681 111.661ZM692.614 99.7226C689.671 99.6508 686.705 99.9858 683.858 100.68C681.394 101.254 679.863 103.742 680.437 106.206C681.035 108.67 683.499 110.178 685.987 109.604C688.092 109.125 690.27 108.886 692.494 108.91C706.92 109.125 718.834 120.681 719.073 134.677C719.169 141.926 718.81 149.223 717.997 156.424C717.71 158.936 719.528 161.209 722.04 161.497C725.245 161.879 726.92 159.224 727.111 157.453C727.997 149.845 728.379 142.189 728.26 134.533C727.949 115.633 711.968 100.01 692.614 99.7226ZM740.867 122.978C740.317 120.489 737.901 118.91 735.389 119.461C732.901 120.011 731.346 122.475 731.896 124.939C732.805 129.055 732.829 132.117 732.805 136.734C732.781 139.27 734.815 141.352 737.351 141.376H737.399C739.911 141.376 741.968 139.342 741.992 136.806C742.016 132.571 742.063 128.361 740.867 122.978ZM733.188 105.608C723.858 92.3299 708.619 84.2434 692.375 84.0041C679.026 83.8367 666.681 88.7652 657.495 97.9762C648.619 106.852 643.834 118.647 644.026 131.208L644.002 135.323C643.93 137.859 645.916 139.964 648.452 140.036C648.499 140.06 648.547 140.06 648.595 140.06C651.083 140.06 653.117 138.074 653.188 135.586L653.212 131.064C653.069 121.016 656.873 111.566 663.978 104.46C671.418 97.0431 681.466 93.0477 692.255 93.1913C705.533 93.3827 718.044 100.01 725.676 110.872C727.135 112.953 729.982 113.455 732.064 111.996C734.145 110.537 734.647 107.69 733.188 105.608Z" fill="url(#paint1_linear)"/>
<path d="M661 207H667.437V251.923H661V207ZM675.588 207H691.179C695.614 207 697.831 209.105 697.831 213.315V245.608C697.831 249.818 695.614 251.923 691.179 251.923H675.588V207ZM691.322 244.747V214.176C691.322 213.315 691.179 212.765 690.893 212.526C690.607 212.239 690.035 212.095 689.177 212.095H682.096V246.828H689.177C690.035 246.828 690.607 246.708 690.893 246.469C691.179 246.182 691.322 245.608 691.322 244.747ZM710.999 226.089H718.866C723.3 226.089 725.518 228.218 725.518 232.476V245.608C725.518 249.818 723.3 251.923 718.866 251.923H711.285C706.803 251.923 704.562 249.818 704.562 245.608V213.315C704.562 209.105 706.803 207 711.285 207H718.652C723.086 207 725.303 209.105 725.303 213.315V221.065H718.938V214.32C718.938 213.459 718.795 212.908 718.508 212.669C718.222 212.382 717.65 212.239 716.792 212.239H713.144C712.286 212.239 711.714 212.382 711.428 212.669C711.142 212.908 710.999 213.459 710.999 214.32V226.089ZM719.081 244.603V233.337C719.081 232.523 718.938 231.973 718.652 231.686C718.365 231.399 717.793 231.256 716.935 231.256H710.999V244.603C710.999 245.464 711.142 246.039 711.428 246.326C711.714 246.565 712.286 246.684 713.144 246.684H716.935C717.793 246.684 718.365 246.565 718.652 246.326C718.938 246.039 719.081 245.464 719.081 244.603Z" fill="url(#paint2_linear)"/>
<defs>
<linearGradient id="paint0_linear" x1="413" y1="305" x2="419.672" y2="391.113" gradientUnits="userSpaceOnUse">
<stop stop-color="#21D4FD"/>
<stop offset="1" stop-color="#B721FF"/>
</linearGradient>
<linearGradient id="paint1_linear" x1="644" y1="84" x2="740.462" y2="182" gradientUnits="userSpaceOnUse">
<stop stop-color="#21D4FD"/>
<stop offset="1" stop-color="#B721FF"/>
</linearGradient>
<linearGradient id="paint2_linear" x1="661" y1="207" x2="702.245" y2="267.179" gradientUnits="userSpaceOnUse">
<stop stop-color="#21D4FD"/>
<stop offset="1" stop-color="#B721FF"/>
</linearGradient>
</defs>
</svg>
